<svg id="Capa_1" enable-background="new 0 0 512 512" height="512" viewBox="0 0 512 512" width="512" xmlns="http://www.w3.org/2000/svg"><g><g><g><circle cx="256" cy="256" fill="#99e6fc" r="194.473"/></g><g><path d="m450.472 256c0 107.404-87.068 194.472-194.472 194.472-27.46 0-53.588-5.687-77.272-15.956 17.384 5.1 35.784 7.833 54.824 7.833 107.404 0 194.472-87.077 194.472-194.481 0-79.927-48.208-148.586-117.139-178.49 80.681 23.693 139.587 98.275 139.587 186.622z" fill="#62dbfb"/></g><g><path d="m444.935 209.728c-2.287 1.577-4.784 2.839-7.465 3.706-18.567 6.002-55.936-9.673-67.993 12.565-5.511 10.19-3.619 21.598-1.849 31.937 1.235 7.273 3.978 22.326-2.672 27.951-7.351 6.221-23.079.964-30.571-2.059-10.961-4.425-21.108-10.768-30.325-18.137-14.895-11.908-28.634-26.663-40.735-41.304-10.497-12.696-22.264-30.702-14.133-47.341 1.612-3.312 3.873-6.44 4.32-10.094 1.016-8.254-4.591-12.766-6.589-19.986-7.088-25.673 24.209-37.422 35.766-55.113 5.266-8.07 9.13-17.244 10.812-26.707 74.372 14.528 133.586 71.445 151.434 144.582z" fill="#d1f19e"/></g><g><path d="m444.935 209.728c-2.287 1.577-4.784 2.839-7.465 3.706-3.505 1.13-7.675 1.49-12.232 1.481-11.172-65.478-55.069-119.785-114.265-145.502 66.074 19.434 117.533 73.005 133.962 140.315z" fill="#bbec6c"/></g><g><path d="m205.075 186.181c.28 12.065-1.171 24.935-8.684 34.38-8.147 10.243-21.778 14.382-34.771 15.956-8.242.999-16.85 1.151-24.572-1.9-3.6-1.422-6.897-3.5-10.171-5.565-9.866-6.223-20.947-14.622-20.48-26.278.481-11.998 13.261-19.703 25.049-21.993 11.785-2.289 24.479-1.618 35.069-7.272 8.512-4.544 15.86-14.006 26.742-11.863 10.825 2.132 11.593 14.868 11.818 24.535z" fill="#d1f19e"/></g><g><path d="m334.183 434.114c-23.929 10.523-50.373 16.359-78.183 16.359-18.917 0-37.203-2.699-54.491-7.737-.193-1.122-.28-2.296-.272-3.522.175-20.363 6.011-41.663 16.245-59.257 7.378-12.67 20.81-24.612 9.752-39.595-5.301-7.185-13.52-11.592-21.791-14.948-9.121-3.689-20.433-8.683-20.634-18.514-.175-8.56 8.49-14.264 16.078-18.234 29.431-15.412 55.209-2.672 68.273 25.55 3.522 7.597 6.133 16.087 6.677 24.472.517 8.131-1.437 16.411 1.402 24.358 1.656 4.635 4.907 8.543 8.587 11.802 15.5 13.774 40.034 18.9 47.884 38.097 2.743 6.729 2.672 14.238.473 21.169z" fill="#d1f19e"/></g><g><path d="m334.218 414.303c2.217 6.37 2.015 13.344-.035 19.811-23.929 10.523-50.373 16.359-78.183 16.359-18.917 0-37.203-2.699-54.491-7.737-.166-.981-.254-2.007-.263-3.067 10.506 1.77 21.3 2.681 32.305 2.681 36.845 0 71.306-10.243 100.667-28.047z" fill="#bbec6c"/></g></g><g><path d="m402.99 504.503c-45.621-.347-82.721-37.801-82.656-83.423.045-31.854 17.973-59.513 44.279-73.489 1.076-.572 1.746-1.693 1.746-2.912v-20.118c0-2.819 3.301-4.345 5.449-2.52l18.569 15.783c.715.608 1.654.875 2.586.755 3.496-.448 7.058-.683 10.676-.683 46.008 0 83.304 37.296 83.304 83.304 0 46.225-37.648 83.655-83.953 83.303z" fill="#d9b1ee"/></g><g><path d="m486.941 421.199c0 46.226-37.642 83.659-83.948 83.309-19.865-.15-38.102-7.334-52.372-19.176 10.223 4.626 21.544 7.245 33.436 7.334 46.306.35 83.948-37.083 83.948-83.299 0-25.811-11.731-48.874-30.158-64.143 28.949 13.051 49.094 42.159 49.094 75.975z" fill="#cb97e7"/></g><g><path d="m109.01 7.497c45.621.347 82.721 37.801 82.656 83.423-.045 31.854-17.973 59.513-44.279 73.489-1.076.572-1.746 1.693-1.746 2.912v20.118c0 2.819-3.301 4.345-5.449 2.52l-18.569-15.783c-.715-.608-1.654-.875-2.586-.755-3.496.448-7.058.683-10.676.683-46.008 0-83.304-37.296-83.304-83.304 0-46.225 37.648-83.656 83.953-83.303z" fill="#fece85"/></g><g><path d="m191.667 90.921c-.05 31.857-17.977 59.516-44.278 73.486-1.079.57-1.749 1.699-1.749 2.918v20.115c0 2.818-3.298 4.347-5.446 2.518l-14.529-12.341c.39-.53.63-1.189.63-1.949v-20.125c0-1.219.669-2.338 1.749-2.908 26.311-13.98 44.238-41.639 44.278-73.486.04-26.071-12.061-49.474-30.947-64.803 29.577 12.862 50.332 42.43 50.292 76.575z" fill="#fec165"/></g><g><path d="m440.438 338.203c11.246-25.127 17.53-52.94 17.53-82.203 0-111.365-90.603-201.968-201.968-201.968-21.277 0-41.787 3.328-61.06 9.458-11.575-36.489-45.675-63.182-85.873-63.488-19.071-.131-37.367 5.559-52.906 16.494-3.385 2.382-4.198 7.057-1.816 10.442 2.383 3.385 7.056 4.199 10.443 1.816 12.806-9.012 27.859-13.765 43.572-13.765.197 0 .396 0 .594.002 41.534.316 75.277 34.372 75.217 75.918-.04 28.069-15.482 53.696-40.301 66.881-3.531 1.876-5.724 5.527-5.724 9.53v11.063l-11.669-9.92c-2.308-1.962-5.368-2.867-8.392-2.478-3.216.412-6.488.622-9.723.622-41.801 0-75.809-34.008-75.809-75.809 0-13.733 3.707-27.183 10.723-38.894 2.126-3.551.972-8.153-2.579-10.28-3.551-2.128-8.152-.972-10.281 2.579-8.408 14.038-12.852 30.151-12.852 46.596 0 36.966 22.208 68.839 53.98 82.99-11.245 25.127-17.512 52.949-17.512 82.211 0 111.365 90.603 201.968 201.968 201.968 21.276 0 41.792-3.313 61.065-9.441 11.581 36.479 45.676 63.165 85.868 63.471.238.001.473.002.711.002 24.126 0 46.814-9.341 63.951-26.349 17.309-17.177 26.841-40.066 26.841-64.45.001-36.973-22.216-68.851-53.998-82.998zm-141.337-264.159c2.417.573 4.816 1.191 7.196 1.857.302.085.605.164.906.248 62.392 17.788 111.563 67.247 128.963 129.8-.332.127-.666.246-1.002.355-5.306 1.714-14.041 1.091-22.488.488-17.72-1.264-39.773-2.838-49.792 15.642-6.789 12.552-4.491 25.979-2.646 36.758l.088.511c2.497 14.653 1.263 19.215-.213 20.464-2.297 1.944-10.451 1.745-22.924-3.288-9.562-3.86-19.134-9.594-28.452-17.042-12.678-10.135-25.643-23.292-39.638-40.225-9.479-11.469-20.101-26.678-11.973-41.556 1.478-2.706 3.319-6.075 3.821-10.187.932-7.562-1.937-12.917-4.242-17.219-1.098-2.049-2.046-3.818-2.561-5.678-3.338-12.091 4.577-19.76 17.767-31.271 6.239-5.445 12.69-11.075 17.052-17.751 4.501-6.895 7.941-14.35 10.138-21.906zm-171.079 115.406 7.316 6.218c2.009 1.708 4.467 2.589 6.966 2.589 1.537 0 3.091-.334 4.564-1.015 3.866-1.788 6.268-5.544 6.268-9.804v-2.007c5.722-.93 11.438-2.388 16.91-5.31 2.924-1.561 5.55-3.477 8.09-5.331 4.933-3.599 8.371-5.955 12.009-5.955.549 0 1.103.054 1.666.165 3.932.774 5.496 5.477 5.772 17.355.318 13.702-1.924 23.089-7.056 29.541-5.589 7.027-15.617 11.461-29.807 13.182-9.155 1.108-15.605.668-20.916-1.43-2.962-1.17-5.858-2.998-8.926-4.933-8.072-5.091-17.299-11.925-16.99-19.639.244-6.129 6.715-11.071 14.134-13.626zm181.043 191.727c-6.758-3.796-13.142-7.382-18.269-11.939-3.287-2.911-5.473-5.843-6.499-8.713-1.384-3.876-1.213-8.201-1.015-13.208.115-2.927.235-5.953.034-9.114-.556-8.575-3.1-17.96-7.354-27.135-7.85-16.957-20.164-29.01-34.675-33.938-13.701-4.653-28.873-2.96-43.873 4.896-5.578 2.917-20.392 10.666-20.098 25.028.31 15.196 16.578 21.774 25.31 25.305 9.269 3.76 14.998 7.601 18.578 12.454 5.214 7.065 2.756 12.042-5.053 23.448-.855 1.25-1.71 2.499-2.536 3.752-2.28 3.455-1.327 8.104 2.127 10.383 3.455 2.279 8.103 1.327 10.383-2.128.78-1.182 1.588-2.36 2.395-3.539 7.081-10.344 16.779-24.51 4.745-40.815-6.811-9.233-16.941-14.172-25.012-17.447-5.536-2.239-15.842-6.406-15.951-11.719-.069-3.417 3.875-7.158 12.063-11.441 11.442-5.992 22.244-7.333 32.103-3.983 10.742 3.649 19.695 12.654 25.895 26.047 3.486 7.518 5.559 15.057 5.997 21.795.151 2.381.052 4.897-.054 7.561-.227 5.734-.484 12.233 1.878 18.843 1.885 5.276 5.476 10.286 10.666 14.883 6.326 5.622 13.722 9.776 20.875 13.795 4.637 2.605 9.151 5.155 13.12 7.973-1.304 6.123-1.995 12.432-2.004 18.852-.006 4.332.301 8.594.888 12.769-18.19 5.922-37.588 9.141-57.728 9.141-16.307 0-32.132-2.104-47.222-6.045.277-8.947 1.69-18.028 4.21-27.029 1.115-3.986-1.211-8.121-5.196-9.237-3.99-1.118-8.122 1.211-9.238 5.197-2.467 8.813-3.97 17.709-4.535 26.543-72.728-25.635-124.999-95.029-124.999-176.412 0-27.535 5.99-53.694 16.725-77.254 7.232 1.861 14.81 2.851 22.615 2.851.863 0 1.729-.014 2.596-.039-6.822 5.026-11.693 12.07-12.048 20.917-.696 17.359 16.589 28.262 23.97 32.917 3.351 2.114 7.15 4.51 11.414 6.196 5.963 2.357 12.215 3.063 17.839 3.063 3.856 0 7.419-.332 10.39-.692 18.239-2.211 31.608-8.513 39.735-18.731 9.772-12.286 10.564-28.267 10.31-39.219-.197-8.476-.658-28.326-17.861-31.714-10.944-2.155-18.967 3.691-25.406 8.389-2.22 1.62-4.317 3.15-6.314 4.216-2.984 1.593-6.311 2.582-9.851 3.288v-.386c28.411-16.116 45.979-46.103 46.025-78.87.006-4.334-.302-8.598-.889-12.776 18.189-5.921 37.59-9.134 57.729-9.134 9.617 0 19.067.731 28.297 2.139-1.785 5.696-4.447 11.33-7.881 16.594-3.227 4.939-8.633 9.657-14.358 14.653-12.642 11.033-28.376 24.764-22.359 46.558.961 3.474 2.467 6.284 3.796 8.764 1.924 3.591 2.912 5.591 2.577 8.313-.324 2.655-2.465 5.352-3.615 7.713-11.411 23.351 8.536 47.478 15.089 55.406 14.657 17.735 28.341 31.598 41.832 42.383 10.454 8.358 21.288 14.828 32.201 19.234 7.119 2.872 15.74 5.477 23.597 5.476 5.508 0 10.643-1.28 14.618-4.645 9.766-8.261 6.865-25.281 5.307-34.426l-.087-.512c-1.609-9.395-3.272-19.11 1.05-27.101 5.032-9.284 17.339-9.126 35.543-7.829 10.262.733 19.953 1.421 27.997-1.127 2.205 11.462 3.373 23.289 3.373 35.385 0 27.536-5.994 53.694-16.73 77.253-7.231-1.86-14.807-2.85-22.61-2.85-3.255 0-6.543.177-9.801.528l-17.176-14.599c-3.247-2.759-7.662-3.362-11.53-1.574-3.866 1.788-6.268 5.544-6.268 9.804v17.637c-18.169 10.306-31.893 26.291-39.447 45.043-3.376-2.137-6.876-4.114-10.35-6.065zm147.972 93.835c-14.309 14.201-33.25 21.999-53.395 21.999-.198 0-.397 0-.595-.002-41.534-.316-75.277-34.373-75.217-75.918.04-28.069 15.482-53.696 40.301-66.881 3.531-1.876 5.724-5.528 5.724-9.531v-11.063l11.667 9.917c2.309 1.964 5.364 2.868 8.393 2.48 3.221-.413 6.492-.622 9.724-.622 41.801 0 75.809 34.008 75.809 75.81 0 20.359-7.959 39.469-22.411 53.811z"/><path d="m389.046 443.887h-26.33c-4.14 0-7.495 3.355-7.495 7.495s3.355 7.495 7.495 7.495h26.33c4.14 0 7.495-3.355 7.495-7.495s-3.355-7.495-7.495-7.495z"/><path d="m444.561 443.887h-21.294c-4.14 0-7.495 3.355-7.495 7.495s3.355 7.495 7.495 7.495h21.294c4.14 0 7.495-3.355 7.495-7.495s-3.355-7.495-7.495-7.495z"/><path d="m444.561 413.583h-81.845c-4.14 0-7.495 3.355-7.495 7.495s3.355 7.495 7.495 7.495h81.845c4.14 0 7.495-3.355 7.495-7.495s-3.355-7.495-7.495-7.495z"/><path d="m444.561 383.279h-81.845c-4.14 0-7.495 3.355-7.495 7.495 0 4.139 3.355 7.495 7.495 7.495h81.845c4.14 0 7.495-3.355 7.495-7.495s-3.355-7.495-7.495-7.495z"/><path d="m149.284 53.123h-81.845c-4.14 0-7.495 3.355-7.495 7.495 0 4.139 3.355 7.495 7.495 7.495h81.845c4.14 0 7.495-3.355 7.495-7.495s-3.355-7.495-7.495-7.495z"/><path d="m149.284 83.428h-13.409c-4.14 0-7.495 3.355-7.495 7.494s3.355 7.495 7.495 7.495h13.409c4.14 0 7.495-3.355 7.495-7.495 0-4.139-3.355-7.494-7.495-7.494z"/><path d="m67.439 98.417h33.9c4.14 0 7.495-3.355 7.495-7.495 0-4.139-3.355-7.494-7.495-7.494h-33.9c-4.14 0-7.495 3.355-7.495 7.494s3.355 7.495 7.495 7.495z"/><path d="m67.439 128.721h81.845c4.14 0 7.495-3.355 7.495-7.495 0-4.139-3.355-7.494-7.495-7.494h-81.845c-4.14 0-7.495 3.355-7.495 7.494 0 4.14 3.355 7.495 7.495 7.495z"/></g></g></svg>