<svg id="Capa_1" enable-background="new 0 0 512 512" height="512" viewBox="0 0 512 512" width="512" xmlns="http://www.w3.org/2000/svg"><g><g><g><path d="m454.962 441.537h-397.836c-11.333 0-20.519-9.187-20.519-20.519v-260.688c0-11.333 9.187-20.519 20.519-20.519h397.836c11.333 0 20.519 9.187 20.519 20.519v260.687c.001 11.333-9.186 20.52-20.519 20.52z" fill="#c5d3dd"/></g><g><path d="m475.478 160.329v260.688c0 11.335-9.188 20.522-20.512 20.522h-19.973c11.325 0 20.512-9.188 20.512-20.522v-260.688c0-11.335-9.188-20.522-20.512-20.522h19.973c11.324 0 20.512 9.188 20.512 20.522z" fill="#b6c4cf"/></g><g><path d="m443.651 177.849v225.655c0 4.364-3.535 7.899-7.909 7.899h-359.395c-4.374 0-7.909-3.535-7.909-7.899v-225.655c0-4.364 3.535-7.909 7.909-7.909h359.395c4.374 0 7.909 3.545 7.909 7.909z" fill="#f2fbff"/></g><g><path d="m443.651 177.846v225.655c0 4.364-3.535 7.899-7.909 7.899h-19.973c4.374 0 7.909-3.535 7.909-7.899v-225.655c0-4.364-3.535-7.909-7.909-7.909h19.973c4.374-.001 7.909 3.545 7.909 7.909z" fill="#dff6fd"/></g><g><path d="m477.796 504.356h-443.503c-14.754 0-26.714-11.96-26.714-26.714v-29.936c0-3.406 2.761-6.168 6.168-6.168h484.596c3.406 0 6.168 2.761 6.168 6.168v29.936c-.001 14.753-11.961 26.714-26.715 26.714z" fill="#8d9ca8"/></g><g><path d="m504.509 447.701v29.94c0 14.75-11.964 26.714-26.714 26.714h-19.973c14.75 0 26.714-11.964 26.714-26.714v-29.94c0-3.405-2.756-6.162-6.162-6.162h19.973c3.405.001 6.162 2.757 6.162 6.162z" fill="#7a8c98"/></g><g><path d="m290.563 472.946h-69.037c-11.017 0-19.948-8.931-19.948-19.948v-11.461h108.934v11.461c-.001 11.017-8.932 19.948-19.949 19.948z" fill="#596c76"/></g><g><path d="m310.511 441.54v11.454c0 11.025-8.928 19.953-19.943 19.953h-19.803c11.015 0 19.943-8.928 19.943-19.953v-11.454z" fill="#465a61"/></g></g><g><g><path d="m255.239 411.436h-135.53v-18.319c0-37.426 30.339-67.765 67.765-67.765 37.425 0 67.765 30.339 67.765 67.765z" fill="#99e6fc"/></g><g><path d="m255.235 393.119v18.315h-19.164v-18.315c0-18.715-7.59-35.652-19.853-47.915-10.126-10.126-23.448-17.077-38.328-19.174 3.136-.449 6.332-.679 9.587-.679 18.715 0 35.652 7.59 47.915 19.853 12.264 12.263 19.843 29.2 19.843 47.915z" fill="#62dbfb"/></g><g><path d="m187.474 346.085c-8.991 0-16.279-7.289-16.279-16.279v-37.523h32.559v37.523c-.001 8.99-7.289 16.279-16.28 16.279z" fill="#fed2a4"/></g><g><path d="m203.751 292.283v37.529c0 8.988-7.291 16.279-16.279 16.279-2.957 0-5.748-.789-8.139-2.191 4.865-2.803 8.139-8.069 8.139-14.088v-37.529z" fill="#ffbd86"/></g><g><path d="m187.478 310.782c-35.22 0-63.772-28.552-63.772-63.772v-52.003h63.772 63.772v52.003c-.001 35.221-28.552 63.772-63.772 63.772z" fill="#fed2a4"/></g><g><path d="m251.251 195.006v52c0 35.223-28.552 63.774-63.774 63.774-3.396 0-6.731-.27-9.987-.779 30.479-4.793 53.787-31.168 53.787-62.995v-52z" fill="#ffbd86"/></g><g><path d="m262.855 176.657c-1.802-2.534-2.298-5.751-1.552-8.77 1.586-6.419 2.284-13.218 2.492-19.952.185-6.002-.232-12.047-1.194-17.999-1.039-6.429-7.255-10.683-13.625-9.329-4.24.901-8.243 1.686-8.859 1.808-18.758 3.707-36.64 4.112-55.643 5.402-17.295 1.174-34.649 3.742-50.297 11.619-11.201 5.638-18.192 16.561-18.267 28.441v.037c-.014 2.428-.799 4.801-2.296 6.713-7.503 9.585-11.71 21.503-11.71 33.944v25.604h21.686l.113-34.365c.013-3.969 4.353-6.315 7.745-4.254.03.018.059.036.089.054 9.123 5.497 20.477 7.621 31.236 8.82 14.864 1.657 30.741 1.746 45.666.545 7.266-.585 14.566-1.595 21.557-3.717 3.429-1.041 6.791-2.333 9.97-4.004 1.194-.629 2.329-1.3 3.41-2.012 3.372-2.22 7.857.134 7.871 4.171l.114 34.762h21.686v-25.605c.003-11.576-3.641-22.701-10.192-31.913z" fill="#596c76"/></g><g><path d="m273.051 208.568v25.606h-17.816v-25.606c0-11.574-3.645-22.699-10.196-31.907-1.798-2.537-2.297-5.752-1.548-8.778 1.588-6.411 2.277-13.212 2.487-19.953.19-6.002-.23-12.044-1.188-17.996-.509-3.176-2.287-5.812-4.714-7.51.01 0 .03-.01.04-.01.619-.12 4.624-.909 8.858-1.807 6.372-1.358 12.593 2.896 13.632 9.327.959 5.952 1.378 11.994 1.188 17.996-.21 6.741-.909 13.542-2.487 19.953-.749 3.026-.25 6.242 1.548 8.778 6.551 9.208 10.196 20.333 10.196 31.907z" fill="#465a61"/></g><g><path d="m123.82 246.662h-8.408c-10.022 0-18.147-8.124-18.147-18.147 0-10.022 8.124-18.147 18.147-18.147h8.408z" fill="#fed2a4"/></g><g><path d="m251.249 246.662h8.408c10.022 0 18.147-8.124 18.147-18.147 0-10.022-8.124-18.147-18.147-18.147h-8.408z" fill="#fed2a4"/></g></g><g><g><path d="m504.045 226.256v83.043c0 8.94-7.248 16.188-16.188 16.188h-80.555c-4.167 0-8.199 1.482-11.374 4.181l-47.557 40.424c-3.393 2.884-8.608.473-8.608-3.981v-35.399c0-2.885-2.339-5.224-5.224-5.224h-10.469c-8.94 0-16.188-7.248-16.188-16.188v-83.043c0-8.94 7.248-16.188 16.188-16.188h163.788c8.94-.001 16.187 7.247 16.187 16.187z" fill="#fece85"/></g></g><g><g><path d="m387.327 325.49h19.973c-4.164 0-8.199 1.478-11.375 4.174l-47.555 40.426c-3.395 2.886-8.608.479-8.608-3.975v-5.682l36.191-30.768c3.175-2.697 7.21-4.175 11.374-4.175z" fill="#fec165"/></g><g><path d="m504.049 226.254v83.048c0 8.938-7.25 16.188-16.188 16.188h-19.973c8.938 0 16.188-7.25 16.188-16.188v-83.048c0-8.938-7.25-16.188-16.188-16.188h19.973c8.938 0 16.188 7.25 16.188 16.188z" fill="#fec165"/></g></g><g><path d="m7.49 20.794v28.28c0 7.262 5.887 13.149 13.149 13.149h93.397c3.385 0 6.66 1.204 9.239 3.396l38.629 32.835c2.756 2.343 6.992.384 6.992-3.233v-28.755c0-2.344 1.9-4.244 4.244-4.244h8.504c7.262 0 13.149-5.887 13.149-13.149v-28.28c0-7.262-5.887-13.149-13.149-13.149h-161.005c-7.262 0-13.149 5.887-13.149 13.15z" fill="#d9b1ee"/></g><g><path d="m194.797 20.792v28.282c0 7.26-5.892 13.152-13.152 13.152h-8.509c-2.337 0-4.244 1.897-4.244 4.244v28.751c0 3.615-4.234 5.573-6.991 3.236l-12.982-11.035v-20.952c0-2.347 1.908-4.244 4.244-4.244h8.509c7.26 0 13.152-5.892 13.152-13.152v-28.282c0-7.26-5.892-13.142-13.152-13.142h19.973c7.26-.001 13.152 5.881 13.152 13.142z" fill="#cb97e7"/></g><g><path d="m163.986 223.748c-4.137 0-7.49 3.353-7.49 7.49v10.9c0 4.136 3.353 7.49 7.49 7.49 4.136 0 7.49-3.353 7.49-7.49v-10.9c-.001-4.136-3.354-7.49-7.49-7.49z"/><path d="m210.969 223.748c-4.136 0-7.49 3.353-7.49 7.49v10.9c0 4.136 3.353 7.49 7.49 7.49s7.49-3.353 7.49-7.49v-10.9c0-4.136-3.353-7.49-7.49-7.49z"/><path d="m498.342 434.047h-18.596c2.056-3.895 3.226-8.327 3.226-13.029v-88.04h4.885c13.056 0 23.678-10.622 23.678-23.678v-83.044c0-13.056-10.622-23.678-23.678-23.678h-4.885v-42.248c0-15.445-12.565-28.01-28.01-28.01h-184.458c-.151-1.194-.316-2.388-.508-3.581-.82-5.077-3.726-9.657-7.972-12.566-4.247-2.91-9.572-3.966-14.604-2.896-1.822.388-4.801 1.008-8.645 1.765l-.109.022c-14.483 2.862-28.473 3.691-43.284 4.568-3.77.223-7.569.448-11.414.709-16.031 1.088-34.733 3.383-52.272 11.978h-74.57c-15.444 0-28.01 12.565-28.01 28.01v260.688c0 4.702 1.17 9.134 3.226 13.029h-18.595c-7.531 0-13.658 6.127-13.658 13.658v29.936c0 18.86 15.344 34.204 34.204 34.204h443.504c18.86 0 34.204-15.344 34.204-34.204v-29.936c-.001-7.53-6.128-13.657-13.659-13.657zm-10.485-216.489c4.796 0 8.698 3.902 8.698 8.698v83.044c0 4.796-3.902 8.698-8.698 8.698h-80.555c-5.937 0-11.699 2.118-16.224 5.964l-43.825 37.25v-30.5c0-7.011-5.703-12.714-12.714-12.714h-10.469c-4.796 0-8.698-3.902-8.698-8.698v-83.044c0-4.796 3.902-8.698 8.698-8.698zm-216.576-69.392c.009-.288.01-.577.016-.865h183.665c7.185 0 13.03 5.845 13.03 13.03v42.248h-16.847v-24.73c0-8.49-6.908-15.398-15.398-15.398h-165.73c.686-4.395 1.105-9.12 1.264-14.285zm-.966 80.35c0 5.876-4.781 10.656-10.656 10.656h-.919v-21.313h.919c5.875 0 10.656 4.78 10.656 10.657zm-146.914-60.594c.057-9.082 5.477-17.434 14.144-21.797 15.413-7.759 32.629-9.832 47.437-10.837 3.802-.258 7.558-.48 11.285-.701 15.335-.908 29.819-1.765 45.3-4.825l.102-.02c3.115-.613 6.18-1.24 8.865-1.81 1.425-.305 2.507.246 3.024.601.516.354 1.418 1.162 1.65 2.597.898 5.562 1.269 11.139 1.101 16.574-.217 7.052-.962 13.066-2.276 18.386-1.292 5.226-.301 10.659 2.717 14.907l.001.001c4.777 6.716 7.68 14.416 8.536 22.511-1.813-.408-3.695-.63-5.629-.63h-.907l-.011-3.491c-.015-4.605-2.541-8.816-6.593-10.991-4.076-2.188-9.014-1.961-12.887.589-.884.582-1.819 1.134-2.776 1.637-2.539 1.334-5.372 2.468-8.661 3.467-5.537 1.681-11.887 2.767-19.983 3.419-15.027 1.208-30.322 1.028-44.236-.523-8.722-.972-19.81-2.736-28.266-7.831-3.897-2.368-8.778-2.461-12.74-.24-3.923 2.199-6.37 6.364-6.385 10.871l-.01 3.094h-.792c-1.972 0-3.89.231-5.735.655.949-8.807 4.352-17.285 9.836-24.291 2.485-3.175 3.865-7.184 3.889-11.322zm-7.989 86.23h1.162c2.782 27.829 21.646 50.981 47.131 60.029v7.551c-29.88 9.973-51.486 38.196-51.486 71.386v10.801h-35.877c-.231 0-.418-.188-.418-.418v-225.653c0-.231.187-.418.418-.418h26.402c-5.404 9.436-8.329 20.219-8.329 31.14v5.262c-2.92 4.162-4.64 9.224-4.64 14.683 0 14.136 11.501 25.637 25.637 25.637zm-10.657-25.636c0-5.876 4.781-10.657 10.657-10.657h.804v21.313h-.804c-5.876 0-10.657-4.781-10.657-10.656zm22.444 164.602c0-25.257 15.62-46.924 37.704-55.875 3.13 9.474 12.062 16.333 22.571 16.333 10.511 0 19.445-6.861 22.573-16.338 22.083 8.953 37.702 30.624 37.702 55.881v10.801h-120.55zm51.486-63.312v-12.093c2.884.357 5.815.559 8.793.559 2.976 0 5.904-.202 8.786-.558v12.092c0 4.846-3.943 8.789-8.789 8.789s-8.79-3.943-8.79-8.789zm8.793-26.513c-30.771 0-55.84-24.826-56.263-55.498.056-.37-.02-43.834-.02-43.834 10.108 5.064 21.593 6.892 30.75 7.912 14.849 1.656 31.135 1.852 47.097.567 9.192-.74 16.542-2.016 23.132-4.016 4.205-1.277 11.485-4.65 11.585-4.704v43.29c.001 31.034-25.247 56.283-56.281 56.283zm-143.381-142.963c0-7.185 5.845-13.03 13.03-13.03h57.417c-2.932 4.581-4.893 9.724-5.702 15.149h-32.5c-8.49 0-15.398 6.907-15.398 15.398v225.653c0 8.49 6.907 15.398 15.398 15.398h245.701c4.137 0 7.49-3.353 7.49-7.49s-3.353-7.49-7.49-7.49h-59.315v-10.801c0-33.188-21.608-61.396-51.485-71.37v-7.564c25.489-9.046 44.356-32.2 47.138-60.032h1.277c14.136 0 25.636-11.501 25.636-25.636 0-5.53-1.766-10.651-4.754-14.844v-5.102c0-11.029-2.865-21.678-8.314-31.14h163.52c.231 0 .418.187.418.418v24.73h-112.095c-13.056 0-23.678 10.622-23.678 23.678v83.045c0 13.056 10.622 23.678 23.678 23.678h8.204v33.134c0 5.014 2.827 9.435 7.378 11.54 1.734.802 3.562 1.195 5.373 1.195 2.94 0 5.834-1.038 8.198-3.048l47.558-40.423c1.819-1.547 4.136-2.398 6.522-2.398h28.863v70.522c0 .231-.187.418-.418.418h-79.11c-4.137 0-7.49 3.353-7.49 7.49 0 4.136 3.353 7.49 7.49 7.49h79.11c8.49 0 15.398-6.908 15.398-15.398v-70.522h16.847v88.04c0 7.184-5.846 13.029-13.03 13.029h-397.836c-7.185 0-13.03-5.845-13.03-13.029v-260.688zm258.924 288.697v3.971c0 6.87-5.589 12.458-12.459 12.458h-69.037c-6.87 0-12.458-5.589-12.458-12.458v-3.971zm193.999 28.614c0 10.6-8.624 19.225-19.224 19.225h-443.503c-10.6 0-19.224-8.624-19.224-19.225v-28.614h179.019v3.971c0 15.13 12.309 27.438 27.438 27.438h69.037c15.13 0 27.439-12.309 27.439-27.438v-3.971h179.018z"/><path d="m346.254 247.262h119.418c4.137 0 7.49-3.353 7.49-7.49 0-4.136-3.353-7.49-7.49-7.49h-119.418c-4.137 0-7.49 3.353-7.49 7.49s3.353 7.49 7.49 7.49z"/><path d="m465.672 260.288h-19.628c-4.137 0-7.49 3.353-7.49 7.49s3.353 7.49 7.49 7.49h19.628c4.137 0 7.49-3.353 7.49-7.49s-3.353-7.49-7.49-7.49z"/><path d="m346.254 275.267h65.236c4.137 0 7.49-3.353 7.49-7.49 0-4.136-3.353-7.49-7.49-7.49h-65.236c-4.137 0-7.49 3.353-7.49 7.49s3.353 7.49 7.49 7.49z"/><path d="m346.254 303.273h119.418c4.137 0 7.49-3.353 7.49-7.49s-3.353-7.49-7.49-7.49h-119.418c-4.137 0-7.49 3.353-7.49 7.49s3.353 7.49 7.49 7.49z"/><path d="m20.639 69.713h24.194c4.137 0 7.49-3.353 7.49-7.49 0-4.136-3.353-7.49-7.49-7.49h-24.194c-3.121 0-5.659-2.539-5.659-5.659v-28.28c0-3.121 2.539-5.659 5.659-5.659h161.004c3.121 0 5.659 2.539 5.659 5.659v28.28c0 3.121-2.539 5.659-5.659 5.659h-8.504c-6.47 0-11.733 5.264-11.733 11.734v21.733l-33.281-28.289c-3.929-3.34-8.932-5.179-14.089-5.179h-34.314c-4.136 0-7.49 3.353-7.49 7.49s3.353 7.49 7.49 7.49h34.314c1.606 0 3.164.572 4.388 1.613l38.629 32.836c2.182 1.854 4.852 2.812 7.566 2.812 1.671 0 3.358-.363 4.958-1.103 4.2-1.942 6.809-6.023 6.809-10.65v-25.507h5.257c11.381 0 20.639-9.259 20.639-20.639v-28.28c0-11.381-9.259-20.639-20.639-20.639h-161.004c-11.381 0-20.639 9.258-20.639 20.639v28.28c0 11.38 9.258 20.639 20.639 20.639z"/></g></g></svg>