<svg id="Capa_1" enable-background="new 0 0 512 512" height="512" viewBox="0 0 512 512" width="512" xmlns="http://www.w3.org/2000/svg"><g><g><path d="m454.952 421.242h-397.904c-11.335 0-20.523-9.188-20.523-20.523v-260.732c0-11.335 9.188-20.523 20.523-20.523h397.904c11.335 0 20.523 9.188 20.523 20.523v260.732c0 11.335-9.189 20.523-20.523 20.523z" fill="#c5d3dd"/></g><g><path d="m475.471 139.986v260.733c0 11.337-9.189 20.526-20.516 20.526h-19.976c11.327 0 20.516-9.189 20.516-20.526v-260.733c0-11.337-9.189-20.526-20.516-20.526h19.976c11.327 0 20.516 9.189 20.516 20.526z" fill="#b6c4cf"/></g><g><path d="m443.639 157.439v225.694c0 4.365-3.536 7.901-7.911 7.901h-359.457c-4.375 0-7.911-3.536-7.911-7.901v-225.694c0-4.365 3.536-7.911 7.911-7.911h359.457c4.375.001 7.911 3.546 7.911 7.911z" fill="#f5f8f9"/></g><g><path d="m443.639 157.436v225.694c0 4.365-3.536 7.901-7.911 7.901h-19.976c4.375 0 7.911-3.536 7.911-7.901v-225.694c0-4.365-3.536-7.911-7.911-7.911h19.976c4.375 0 7.911 3.546 7.911 7.911z" fill="#e8edf2"/></g><g><path d="m477.79 484.072h-443.58c-14.756 0-26.719-11.962-26.719-26.719v-29.941c0-3.407 2.762-6.169 6.169-6.169h484.679c3.407 0 6.169 2.762 6.169 6.169v29.941c0 14.756-11.962 26.719-26.718 26.719z" fill="#8d9ca8"/></g><g><path d="m504.507 427.407v29.945c0 14.753-11.966 26.719-26.719 26.719h-19.976c14.753 0 26.719-11.966 26.719-26.719v-29.945c0-3.406-2.757-6.163-6.163-6.163h19.976c3.406.001 6.163 2.758 6.163 6.163z" fill="#7a8c98"/></g><g><path d="m290.524 452.657h-69.049c-11.019 0-19.952-8.933-19.952-19.952v-11.463h108.952v11.463c.001 11.019-8.932 19.952-19.951 19.952z" fill="#596c76"/></g><g><path d="m310.476 421.245v11.456c0 11.027-8.929 19.956-19.947 19.956h-19.807c11.017 0 19.946-8.929 19.946-19.956v-11.456z" fill="#465a61"/></g><g><path d="m443.639 157.436v43.92h-375.278v-43.92c0-4.365 3.536-7.911 7.911-7.911h359.457c4.374 0 7.91 3.546 7.91 7.911z" fill="#fece85"/></g><g><path d="m443.639 157.436v43.918h-19.976v-43.918c0-4.365-3.536-7.911-7.911-7.911h19.976c4.375 0 7.911 3.546 7.911 7.911z" fill="#fec165"/></g><g><g><path d="m262.839 299.201v21.647c0 5.559 4.506 10.065 10.065 10.065h71.491c2.591 0 5.098.921 7.072 2.599l29.569 25.133c2.11 1.793 5.352.294 5.352-2.475v-22.01c0-1.794 1.454-3.248 3.248-3.248h6.509c5.559 0 10.065-4.506 10.065-10.065v-21.647c0-5.559-4.506-10.065-10.065-10.065h-123.24c-5.56.001-10.066 4.507-10.066 10.066z" fill="#fe93bb"/></g><g><path d="m249.161 243.03v21.647c0 5.559-4.506 10.065-10.065 10.065h-71.491c-2.591 0-5.098.921-7.072 2.599l-29.569 25.133c-2.11 1.793-5.352.294-5.352-2.475v-22.01c0-1.794-1.454-3.248-3.248-3.248h-6.509c-5.559 0-10.065-4.506-10.065-10.065v-21.646c0-5.559 4.506-10.065 10.065-10.065h123.24c5.56 0 10.066 4.506 10.066 10.065z" fill="#d1f19e"/></g></g><g><g><path d="m406.213 299.199v21.644c0 5.564-4.515 10.068-10.068 10.068h-6.512c-1.788 0-3.246 1.458-3.246 3.246v22.014c0 2.767-3.246 4.265-5.354 2.477l-14.623-12.435v-12.056c0-1.788 1.458-3.246 3.246-3.246h6.512c5.553 0 10.068-4.505 10.068-10.068v-21.644c0-5.554-4.515-10.068-10.068-10.068h19.976c5.554 0 10.069 4.515 10.069 10.068z" fill="#fe76a8"/></g><g><path d="m147.627 274.738h19.976c-2.587 0-5.094.929-7.072 2.607l-29.565 25.13c-2.107 1.788-5.354.29-5.354-2.477v-9.948l14.942-12.705c1.979-1.678 4.486-2.607 7.073-2.607z" fill="#bbec6c"/></g><g><path d="m249.158 243.025v21.654c0 5.554-4.505 10.058-10.058 10.058h-19.976c5.553 0 10.058-4.505 10.058-10.058v-21.654c0-5.554-4.505-10.058-10.058-10.058h19.976c5.553 0 10.058 4.505 10.058 10.058z" fill="#bbec6c"/></g></g><g><path d="m483.6 171.752h-157.141c-11.548 0-20.909-9.361-20.909-20.909v-102.006c0-11.548 9.361-20.909 20.909-20.909h157.141c11.548 0 20.909 9.361 20.909 20.909v102.006c-.001 11.547-9.362 20.909-20.909 20.909z" fill="#99e6fc"/></g><g><path d="m504.507 48.834v102.01c0 11.546-9.359 20.905-20.905 20.905h-19.976c11.546 0 20.905-9.359 20.905-20.905v-102.01c0-11.546-9.359-20.905-20.905-20.905h19.976c11.546 0 20.905 9.359 20.905 20.905z" fill="#62dbfb"/></g><g><path d="m416.762 133.676h-67.542c-6.705 0-12.14-5.435-12.14-12.14v-43.392c0-6.705 5.435-12.14 12.14-12.14h67.541c6.705 0 12.14 5.435 12.14 12.14v43.393c.001 6.704-5.435 12.139-12.139 12.139z" fill="#596c76"/></g><g><path d="m445.306 74.578-16.404 6.417v18.845 18.845l16.404 6.417c2.005.784 4.139 1.187 6.292 1.187h13.266c4.482 0 8.115-3.633 8.115-8.115v-18.334-18.334c0-4.482-3.633-8.115-8.115-8.115h-13.266c-2.153 0-4.287.403-6.292 1.187z" fill="#596c76"/></g><g><path d="m428.906 78.139v43.399c0 6.702-5.444 12.136-12.146 12.136h-18.718c6.702 0 12.146-5.434 12.146-12.136v-43.399c0-6.702-5.444-12.136-12.146-12.136h18.718c6.702.001 12.146 5.434 12.146 12.136z" fill="#465a61"/></g><g><path d="m472.974 81.506v36.667c0 4.485-3.626 8.12-8.11 8.12h-13.264c-1.089 0-2.177-.11-3.246-.31 3.406-.959 5.903-4.095 5.903-7.811v-36.666c0-3.726-2.497-6.852-5.913-7.801 1.069-.21 2.157-.31 3.256-.31h13.264c4.484 0 8.11 3.626 8.11 8.111z" fill="#465a61"/></g><g><path d="m113.282 182.932c4.137 0 7.491-3.354 7.491-7.491s-3.354-7.491-7.491-7.491-7.491 3.354-7.491 7.491c-.001 4.137 3.353 7.491 7.491 7.491z"/><path d="m145.774 182.932c4.137 0 7.491-3.354 7.491-7.491s-3.354-7.491-7.491-7.491-7.491 3.354-7.491 7.491 3.354 7.491 7.491 7.491z"/><path d="m178.267 182.932c4.137 0 7.491-3.354 7.491-7.491s-3.354-7.491-7.491-7.491-7.491 3.354-7.491 7.491 3.354 7.491 7.491 7.491z"/><path d="m396.144 281.645h-123.24c-9.681 0-17.556 7.875-17.556 17.557v21.646c0 9.681 7.875 17.556 17.556 17.556h71.491c.813 0 1.601.29 2.22.816l29.569 25.133c1.997 1.698 4.44 2.575 6.925 2.575 1.529 0 3.073-.333 4.539-1.01 3.844-1.778 6.232-5.513 6.232-9.747v-17.767h2.266c9.68 0 17.555-7.875 17.555-17.556v-21.646c-.001-9.682-7.877-17.557-17.557-17.557zm2.573 39.202c0 1.419-1.154 2.574-2.573 2.574h-6.509c-5.922 0-10.739 4.818-10.739 10.739v12.834l-22.579-19.191c-3.325-2.826-7.559-4.383-11.922-4.383h-71.491c-1.419 0-2.574-1.155-2.574-2.574v-21.646c0-1.419 1.155-2.574 2.574-2.574h123.241c1.419 0 2.573 1.155 2.573 2.574v21.647z"/><path d="m256.652 243.03c0-9.68-7.875-17.555-17.556-17.555h-123.241c-9.68 0-17.556 7.875-17.556 17.555v21.647c0 9.68 7.875 17.556 17.556 17.556h2.266v17.767c0 4.235 2.388 7.97 6.232 9.748 1.464.677 3.008 1.009 4.537 1.009 2.484 0 4.928-.877 6.925-2.574l29.568-25.133c.619-.527 1.408-.816 2.221-.816h71.49c9.68 0 17.556-7.875 17.556-17.556v-21.648zm-14.983 21.647c0 1.419-1.154 2.573-2.574 2.573h-71.49c-4.363 0-8.597 1.557-11.923 4.382l-22.578 19.191v-12.833c0-5.922-4.818-10.74-10.739-10.74h-6.509c-1.419 0-2.574-1.154-2.574-2.573v-21.647c0-1.419 1.154-2.573 2.574-2.573h123.241c1.419 0 2.574 1.154 2.574 2.573v21.647z"/><path d="m482.966 179.243h.634c15.66 0 28.4-12.74 28.4-28.4v-102.006c0-15.659-12.74-28.399-28.4-28.399h-157.141c-15.659 0-28.399 12.74-28.399 28.399v63.137h-241.012c-15.447 0-28.014 12.567-28.014 28.014v260.732c0 4.703 1.17 9.136 3.227 13.032h-18.6c-7.532 0-13.66 6.127-13.66 13.66v29.941c0 18.864 15.347 34.21 34.21 34.21h41.858c4.137 0 7.491-3.354 7.491-7.491s-3.354-7.491-7.491-7.491h-41.859c-10.602 0-19.228-8.625-19.228-19.228v-28.618h179.05v3.971c0 15.132 12.311 27.443 27.443 27.443h69.049c15.132 0 27.442-12.311 27.442-27.443v-3.971h179.051v28.618c0 10.602-8.625 19.228-19.228 19.228h-366.977c-4.137 0-7.491 3.354-7.491 7.491s3.354 7.491 7.491 7.491h366.977c18.864 0 34.211-15.346 34.211-34.21v-29.941c0-7.532-6.129-13.66-13.661-13.66h-18.601c2.057-3.896 3.227-8.329 3.227-13.032v-221.477zm-184.222-22.223c2.829 12.699 14.177 22.223 27.715 22.223h109.689v14.623h-360.296v-36.43c0-.115.047-.219.122-.295.076-.074.179-.121.293-.121zm4.24 275.685c0 6.871-5.589 12.461-12.46 12.461h-69.049c-6.871 0-12.461-5.59-12.461-12.461v-3.971h93.97zm164.999-31.986c0 7.186-5.846 13.032-13.031 13.032h-397.904c-7.186 0-13.032-5.847-13.032-13.032v-260.732c0-7.186 5.846-13.031 13.032-13.031h241.012v15.078h-221.789c-4.247 0-8.097 1.728-10.886 4.517-2.79 2.789-4.519 6.64-4.519 10.888v225.691c0 8.492 6.908 15.4 15.4 15.4h359.467c8.492 0 15.4-6.908 15.4-15.4v-108.392c0-4.138-3.354-7.491-7.491-7.491s-7.491 3.354-7.491 7.491v108.392c0 .23-.187.417-.417.417h-359.467c-.23 0-.418-.187-.418-.417v-174.282h360.302v31.076c0 4.138 3.354 7.491 7.491 7.491s7.491-3.353 7.491-7.491v-60.681h16.85zm-141.524-236.459c-7.398 0-13.417-6.019-13.417-13.418v-102.005c0-7.398 6.018-13.417 13.417-13.417h157.141c7.398 0 13.418 6.018 13.418 13.417v102.006c0 7.399-6.019 13.418-13.418 13.418h-157.141z"/><path d="m464.864 65.9h-13.266c-3.099 0-6.133.573-9.021 1.701v.001l-7.693 3.009c-2.961-7.096-9.966-12.099-18.123-12.099h-67.541c-10.825 0-19.631 8.807-19.631 19.632v43.392c0 10.825 8.806 19.631 19.631 19.631h67.542c8.157 0 15.162-5.002 18.123-12.098l7.693 3.01c2.885 1.127 5.921 1.7 9.021 1.7h13.266c8.605 0 15.606-7.001 15.606-15.606v-36.667c-.001-8.605-7.002-15.606-15.607-15.606zm-43.454 55.636c0 2.563-2.085 4.649-4.649 4.649h-67.541c-2.563 0-4.649-2.085-4.649-4.649v-43.392c0-2.564 2.085-4.65 4.649-4.65h67.542c2.563 0 4.649 2.085 4.649 4.65v43.392zm44.077-3.362c0 .343-.28.623-.623.623h-13.266c-1.225 0-2.425-.226-3.563-.671l-11.642-4.554v-27.464l11.641-4.554c1.141-.446 2.341-.672 3.564-.672h13.266c.343 0 .623.28.623.624z"/></g></g></svg>