<?xml version="1.0" encoding="utf-8"?>
<!-- Generator: Adobe Illustrator 23.1.1, SVG Export Plug-In . SVG Version: 6.00 Build 0)  -->
<svg version="1.1" id="Layer_1" xmlns="http://www.w3.org/2000/svg" xmlns:xlink="http://www.w3.org/1999/xlink" x="0px" y="0px"
	 viewBox="0 0 683.6 437.1" style="enable-background:new 0 0 683.6 437.1;" xml:space="preserve">
<style type="text/css">
	.st0{fill:#B83D5D;}
	.st1{fill:#E3B5AA;}
	.st2{fill:#D78F97;}
	.st3{fill:none;stroke:#C87E84;stroke-width:0.5;stroke-miterlimit:10;}
	.st4{fill:#C87E84;}
	.st5{fill:none;stroke:#B83D5D;stroke-miterlimit:10;}
	.st6{fill:#36364F;}
	.st7{fill:none;stroke:#FFFFFF;stroke-width:4;stroke-miterlimit:10;}
	.st8{fill:#9A304F;}
	.st9{fill:#C33E5D;}
	.st10{fill:#EBA154;}
	.st11{opacity:0.5;fill:#D9751F;enable-background:new    ;}
	.st12{fill:none;stroke:#DC831E;stroke-width:3;stroke-miterlimit:10;}
	.st13{fill:#FFFFFF;}
	.st14{font-family:'Raleway';}
	.st15{font-size:44.39px;}
	.st16{fill:#80ABBD;}
	.st17{fill:#4B7195;}
	.st18{opacity:0.4;fill:#5A93A0;enable-background:new    ;}
	.st19{opacity:0.4;fill:#A3D5E6;enable-background:new    ;}
	.st20{fill:#47547C;}
	.st21{opacity:0.5;fill:#2B2B3F;enable-background:new    ;}
	.st22{fill:none;stroke:#FD783D;stroke-miterlimit:10;stroke-dasharray:4;}
	.st23{fill:#49496B;}
	.st24{font-size:18.43px;}
	.st25{fill:#64648E;}
	.st26{fill:none;}
	.st27{fill:none;stroke:#FD783D;stroke-miterlimit:10;}
	.st28{fill:none;stroke:#FD783D;stroke-miterlimit:10;stroke-dasharray:3.83,3.83;}
	.st29{fill:none;stroke:#FD783D;stroke-miterlimit:10;stroke-dasharray:4.12,4.12;}
	.st30{fill:none;stroke:#FD783D;stroke-miterlimit:10;stroke-dasharray:3.89,3.89;}
	.st31{font-family:'Arial-BoldMT';}
	.st32{font-size:15.61px;}
	.st33{font-size:13.84px;}
	.st34{fill:#54B3CD;}
	.st35{fill:none;stroke:#FD783D;stroke-miterlimit:10;stroke-dasharray:3.38,3.38;}
	.st36{fill:none;stroke:#FD783D;stroke-miterlimit:10;stroke-dasharray:3.81,3.81;}
	.st37{fill:none;stroke:#FD783D;stroke-miterlimit:10;stroke-dasharray:4.06,4.06;}
	.st38{fill:#868686;}
	.st39{font-size:26.41px;}
	.st40{fill:#323247;}
	.st41{fill:#FD783D;}
	.st42{fill:none;stroke:#FD783D;stroke-miterlimit:10;stroke-dasharray:5.07,5.07;}
	.st43{fill:none;stroke:#FD783D;stroke-miterlimit:10;stroke-dasharray:3.74,3.74;}
	.st44{fill:none;stroke:#FD783D;stroke-miterlimit:10;stroke-dasharray:3.4,3.4;}
	.st45{fill:#0C8068;}
	.st46{fill:none;stroke:#0A6D53;stroke-miterlimit:10;}
	.st47{opacity:0.5;fill:#0A6D53;enable-background:new    ;}
	.st48{fill:#159A7A;}
	.st49{fill:none;stroke:#0C8068;stroke-miterlimit:10;}
	.st50{opacity:0.5;fill:#0C8068;enable-background:new    ;}
	.st51{fill:#DC831E;}
</style>
<title>Oleksandr Lemishka</title>
<g id="OBJECTS">
	<path class="st0" d="M431.8,157.7c-1.5,32.7-33.6,57.7-57.6,59.2c-31.8,2-54.5-26.7-57.7-59.2c-2.8-28.2,7.2-27.8,14.7-39.5
		c9-14.2,25.9-22.1,42.9-22.1C406,96,433.9,113.7,431.8,157.7z"/>
	<rect x="351.8" y="213.8" class="st1" width="44.7" height="55.9"/>
	<path class="st1" d="M424.4,181.2c8-12.1,18.1-12.6,22.4,1.7s-9.7,26.1-21.1,21.7S424.4,181.2,424.4,181.2z"/>
	<path class="st2" d="M433.8,181.5c5.3-1,8.1,14.9-3.6,15.5l2.4-5.6l-2.3-4.6L433.8,181.5z"/>
	<path class="st3" d="M428.4,199.2c6.8-7.3,1.9-12.4,1.9-12.4s6.5-13.3,9.1-3.1"/>
	<path class="st1" d="M323.6,181.2c-8-12.1-18.1-12.6-22.4,1.7s9.7,26.1,21.1,21.7S323.6,181.2,323.6,181.2z"/>
	<path class="st2" d="M314.2,181.5c-5.3-1-8.1,14.9,3.6,15.5l-2.4-5.6l2.3-4.6L314.2,181.5z"/>
	<path class="st3" d="M319.6,199.2c-6.8-7.3-1.9-12.4-1.9-12.4s-6.5-13.3-9.1-3.1"/>
	<path class="st4" d="M396.5,215.1v20.8c-16.1,21.8-44.7,14.7-44.7,14.7l0.5-35.5L396.5,215.1z"/>
	<path class="st1" d="M358.5,122.7h31.4c18,0,32.6,14.6,32.6,32.6v35.3c0,26.7-21.6,48.3-48.3,48.3l0,0c-26.7,0-48.3-21.6-48.3-48.3
		v-35.3C325.9,137.3,340.5,122.7,358.5,122.7C358.5,122.7,358.5,122.7,358.5,122.7z"/>
	<path class="st5" d="M381.6,196.9c-0.3,4.1-3.9,7.2-8,6.9c-3.7-0.3-6.6-3.2-6.9-6.9"/>
	<path class="st0" d="M331,124.9c0,0-8.5-14,2.1-26.4C333.1,98.5,340.8,112.6,331,124.9z"/>
	<path class="st0" d="M335.3,121.5c0,0-11.8,11.4-26.2,3.8C309.1,125.3,321.1,114.8,335.3,121.5z"/>
	<path class="st6" d="M355,179.6c0,4-1.7,7.2-3.8,7.2s-3.8-3.2-3.8-7.2s1.7-7.2,3.8-7.2S355,175.6,355,179.6z"/>
	
		<ellipse transform="matrix(0.2622 -0.965 0.965 0.2622 84.8775 469.1378)" class="st7" cx="349.2" cy="179.1" rx="19.4" ry="19.4"/>
	<path class="st6" d="M401,179.6c0,4-1.7,7.2-3.8,7.2s-3.8-3.2-3.8-7.2s1.7-7.2,3.8-7.2S401,175.6,401,179.6z"/>
	
		<ellipse transform="matrix(0.2669 -0.9637 0.9637 0.2669 120.0466 515.8981)" class="st7" cx="399.1" cy="179" rx="19.4" ry="19.4"/>
	<path class="st0" d="M331.9,136.5c0,0,30.7-16.2,51.1-4.4s22.7,35.9,42.8,29.7c0,0,15.3-6.7-1.5-30.2s-28.3-28-50.2-22.9
		S337.9,117.6,331.9,136.5z"/>
	<path class="st8" d="M330.7,136.2c0,0,10.1-13.4,24.3-17s29.9,13.9,29.9,13.9S348.5,128,330.7,136.2z"/>
	<path class="st0" d="M326,153.1c0,0,3.4,24.9,0,40.1C326,193.3,321,154.6,326,153.1z"/>
	<path class="st0" d="M422.1,153.1c0,0-3.4,24.9,0,40.1C422.1,193.3,427.1,154.6,422.1,153.1z"/>
	<path class="st0" d="M359.9,151.2c-5.3-2.5-14.6-5.3-23.3,0.9c-0.9,0.6-1.2,1.9-0.5,2.8c0.3,0.5,0.8,0.8,1.4,0.9
		c3.7,0.6,7.5,1,11.3,0.9c3.6-0.1,7.3-0.7,10.8-1.7c1.1-0.2,1.8-1.3,1.5-2.4C360.9,152,360.5,151.5,359.9,151.2z"/>
	<path class="st0" d="M410.8,151.2c-5.3-2.5-14.6-5.3-23.3,0.9c-0.9,0.6-1.2,1.9-0.5,2.8c0.3,0.5,0.8,0.8,1.4,0.9
		c3.7,0.6,7.5,1,11.3,0.9c3.6-0.1,7.3-0.7,10.8-1.7c1.1-0.2,1.8-1.3,1.5-2.4C411.8,152,411.4,151.5,410.8,151.2z"/>
	<path class="st9" d="M390.5,214.4c-0.5,1-1.2,1.9-1.9,2.8c-2.6,3.1-7,6.1-14.5,6.2l0,0h-0.5l0,0c-7-0.1-11.4-2.8-14-5.7
		c-0.9-1-1.7-2.1-2.3-3.3c-0.7-1.3-1.3-2.8-1.6-4.3l36.5,0.1C391.8,211.6,391.3,213.1,390.5,214.4z"/>
	<path class="st6" d="M390.5,214.4c-0.5,1-1.2,1.9-1.9,2.8c-9.3-4.2-19.9-4-29.1,0.5c-0.9-1-1.7-2.1-2.3-3.3
		c-0.7-1.3-1.3-2.8-1.6-4.3l36.5,0.1C391.8,211.6,391.3,213,390.5,214.4z"/>
	<path class="st10" d="M529.2,408.7l-327,0.3c0,0,6.1-12.8,14.9-29.7l2-3.8c12-22.9,28.1-51.8,40.7-67.4c14.5-18,48.8-30.9,72-37.9
		c13.6-4.1,23.4-6.2,23.4-6.2h37.6c0,0,8.8,1.9,21.3,5.6c23.2,6.9,58,21,74.1,38.5c3.8,4.2,7.1,8.8,10,13.7
		C518.1,354.8,529.2,408.7,529.2,408.7z"/>
	<path class="st11" d="M529.2,408.7l-327,0.3c0,0,6.1-12.8,14.9-29.7c163.2,48,249.1-30.6,268.8-51.9c3.2-3.4,7.6-5.5,12.3-5.6h0.1
		C518.1,354.8,529.2,408.7,529.2,408.7z"/>
	<line class="st7" x1="369" y1="182.4" x2="379.3" y2="182.4"/>
	<path class="st1" d="M414.1,269.6c-40.5,44.5-82.2,0.6-82.2,0.6c13.6-4.1,23.4-6.2,23.4-6.2h37.5
		C392.8,264,401.6,265.9,414.1,269.6z"/>
	<line class="st12" x1="284.8" y1="358.4" x2="284.8" y2="409.1"/>
	<line class="st12" x1="284.8" y1="390.7" x2="271.2" y2="373.3"/>
	<line class="st12" x1="462.6" y1="358.4" x2="462.6" y2="409.1"/>
	<line class="st12" x1="462.6" y1="390.7" x2="474.7" y2="375.3"/>
	<path class="st12" d="M329.9,289.5c0,0,50.2,34.3,84.2-1.7"/>
	<text transform="matrix(1 0 0 1 417.5 360.02)" class="st13 st14 st15">x</text>
	<path class="st0" d="M330.7,115.5c11.3-47.4,124.1-42.1,103.1,50.1c-6.3,27.6-52.3-62.8-92-40.6c-3,1.7-6.7,1.2-9.1-1.1l0,0
		C330.4,121.7,330,118.5,330.7,115.5z"/>
	<path class="st16" d="M392.7,408.8h-0.1c-0.3,0-0.6,0-0.8,0h-219c-5.1,0-9.2-4.1-9.2-9.2v-0.1l-34.1-96.4c-2.1-5.9,1-12.4,6.9-14.4
		c1.2-0.4,2.5-0.7,3.8-0.7h142.1c4.8,0,9.1,3,10.7,7.5l36.8,103.8l0.1,0.2H392C397.7,399.6,398.3,408.2,392.7,408.8z"/>
	
		<ellipse transform="matrix(0.9456 -0.3252 0.3252 0.9456 -102.7254 88.6574)" class="st13" cx="213.8" cy="351.6" rx="16.5" ry="20"/>
	<path class="st17" d="M392,399.6h-62.2l0-0.2L293,295.6c-1.6-4.5-5.9-7.5-10.7-7.5h-4.8c0,0,10.6,0.7,13.3,10.2s39,110.3,39,110.3
		l2.7,0.2h59.3c0.3,0,0.6,0,0.8,0C398.3,408.3,397.8,399.6,392,399.6z"/>
	<path class="st18" d="M392.7,408.8h-0.1c-0.3,0-0.6,0-0.8,0h-219c-2.8,0-5.4-1.3-7.2-3.5C295,416.4,282.3,288,282.3,288
		c4.8,0,9.1,3,10.7,7.5l36.8,103.8l0.1,0.2H391C391.7,402.7,392.2,405.7,392.7,408.8z"/>
	<path class="st17" d="M132.3,345.2v3.2c-5.8,0.7-7.2,5.6-7.2,11.6v2c0,6,1.4,10.9,7.2,11.6v3.2H20.9c-4.6,0-8.3-3.7-8.3-8.3v-15
		c0-4.6,3.7-8.3,8.3-8.3c0,0,0,0,0,0L132.3,345.2z"/>
	<path class="st13" d="M130.6,370.3c0.5,1.2-0.1,2.6-1.3,3.1c-0.3,0.1-0.6,0.2-0.9,0.2l-106.4,0.1v-25.3l106.4,0.1
		c0.6,0,1.2,0.2,1.6,0.6c0.8,0.7,1.1,1.7,0.7,2.7c-0.9,2.1-0.9,5-0.9,8.3v2C129.8,365.3,129.7,368.2,130.6,370.3z"/>
	<path class="st19" d="M129.9,349c-2,0.1-96.1,5-102.6,14.1c-1.8,2.5-3.7,3.9-5.5,4.1v-18.9l106.4,0.1
		C128.9,348.4,129.5,348.7,129.9,349z"/>
	<path class="st17" d="M18,345.2h9.4l0,0v31.6l0,0H18c-2.9,0-5.3-2.4-5.3-5.3v-20.9C12.7,347.6,15.1,345.2,18,345.2z"/>
	<path class="st19" d="M130.6,370.3c0.5,1.2-0.1,2.6-1.3,3.1c-0.3,0.1-0.6,0.2-0.9,0.2h-21.3c16.9-1.9,15.8-15.8,15.8-15.8
		c0.2-0.7-13.3-8.8-13.1-9.4h18.5c0.6,0,1.2,0.2,1.6,0.6c0.8,0.7,1.1,1.7,0.7,2.7c-0.9,2.1-0.9,5-0.9,8.3v2
		C129.8,365.3,129.7,368.2,130.6,370.3z"/>
	<rect x="27.5" y="359.2" class="st19" width="102.2" height="2.3"/>
	<rect x="27.5" y="354" class="st19" width="102.2" height="2.3"/>
	<rect x="27.5" y="365.7" class="st19" width="102.2" height="2.3"/>
	<polygon class="st9" points="96.8,369 91.4,363.5 85.9,369 85.9,354 96.8,354 	"/>
	<path class="st9" d="M144.2,376.7v3.2c-5.8,0.7-7.2,5.6-7.2,11.6v2c0,6,1.4,10.9,7.2,11.6v3.2H32.8c-4.6,0-8.3-3.7-8.3-8.3v-15
		c0-4.6,3.7-8.3,8.3-8.3L144.2,376.7z"/>
	<path class="st13" d="M142.5,401.8c0.5,1.2-0.1,2.6-1.3,3.1c-0.3,0.1-0.6,0.2-0.9,0.2l-106.5,0.1v-25.3l106.4,0.1
		c0.6,0,1.2,0.2,1.6,0.6c0.8,0.7,1.1,1.8,0.7,2.7c-0.9,2.1-0.9,5-0.9,8.3v2C141.6,396.8,141.6,399.7,142.5,401.8z"/>
	<path class="st19" d="M141.8,380.5c-2.1,0.1-96.1,5-102.6,14.1c-1.8,2.5-3.7,3.9-5.5,4.1v-18.9l106.5,0.1
		C140.8,380,141.4,380.2,141.8,380.5z"/>
	<path class="st9" d="M29.9,376.7h9.4l0,0v31.6l0,0h-9.4c-2.9,0-5.3-2.4-5.4-5.3v-20.9C24.6,379.1,26.9,376.7,29.9,376.7
		C29.9,376.7,29.9,376.7,29.9,376.7z"/>
	<path class="st19" d="M142.5,401.8c0.5,1.2-0.1,2.6-1.3,3.1c-0.3,0.1-0.6,0.2-0.9,0.2H119c16.9-1.9,15.8-15.8,15.8-15.8
		c0.2-0.7-13.3-8.8-13.1-9.4h18.5c0.6,0,1.2,0.2,1.6,0.6c0.8,0.7,1.1,1.8,0.7,2.7c-0.9,2.1-0.9,5-0.9,8.3v2
		C141.6,396.8,141.6,399.7,142.5,401.8z"/>
	<rect x="39.5" y="390.7" class="st19" width="102.2" height="2.3"/>
	<rect x="39.5" y="385.5" class="st19" width="102.2" height="2.3"/>
	<rect x="39.5" y="397.2" class="st19" width="102.2" height="2.3"/>
	<polygon class="st9" points="130.5,402.4 124.7,396.7 119,402.4 119,386.7 130.5,386.7 	"/>
	<path class="st20" d="M683.6,422v2.3c0,7.1-5.7,12.8-12.8,12.8H16.8c-5.8,0-10.9-3.9-12.4-9.5l0,0c-0.3-1-0.4-2.1-0.4-3.2v-2.3
		c0-7.1,5.7-12.8,12.7-12.8c0,0,0,0,0,0h654C677.8,409.2,683.6,414.9,683.6,422C683.6,422,683.6,422,683.6,422z"/>
	<path class="st21" d="M683.6,422v2.3c0,7.1-5.7,12.8-12.8,12.8H16.8c-5.8,0-10.9-3.9-12.4-9.5l0,0c-0.3-2-0.4-3.2-0.4-3.2
		c366.8,12.8,666.8-15.1,666.8-15.1C677.9,409.2,683.6,415,683.6,422z"/>
	<path class="st10" d="M667.3,71.6c0-0.1,0-0.2,0-0.2s0-0.1,0-0.2c1.2-0.6,2.4-1.2,3.6-1.9c1.3-0.9,2.6-1.9,3.8-3l-0.3-1
		c-0.3-1.2-0.7-2.3-1.1-3.4c-0.2-0.5-0.5-1.1-0.8-1.6c-0.2-0.5-0.5-1.1-0.8-1.6l-0.5-0.9c-1.6,0-3.2,0.2-4.8,0.5
		c-1.3,0.3-2.6,0.7-3.9,1.2l-0.3-0.3c1.1-2.8,1.6-5.7,1.7-8.7l-0.9-0.5c-0.5-0.3-1-0.6-1.6-0.9c-0.5-0.3-1.1-0.5-1.6-0.8
		c-1.1-0.4-2.2-0.8-3.4-1.1l-1-0.3c-1.1,1.2-2.1,2.4-3,3.8c-0.8,1.1-1.4,2.3-2,3.6h-0.2h-0.2c-0.6-1.2-1.2-2.4-2-3.6
		c-0.9-1.3-1.9-2.6-3-3.8l-1,0.3c-1.1,0.3-2.3,0.7-3.4,1.1c-0.5,0.2-1.1,0.5-1.6,0.8c-0.5,0.2-1.1,0.5-1.6,0.9l-0.9,0.5
		c0,1.6,0.2,3.2,0.5,4.8c0.3,1.3,0.7,2.6,1.2,3.9l-0.3,0.3c-1.3-0.5-2.6-0.9-3.9-1.2c-1.6-0.3-3.2-0.5-4.8-0.5l-0.5,0.9
		c-0.3,0.5-0.6,1-0.8,1.6c-0.2,0.5-0.5,1.1-0.8,1.6c-0.5,1.1-0.8,2.2-1.1,3.4l-0.3,1c1.2,1.1,2.4,2.1,3.8,3c1.1,0.7,2.3,1.4,3.6,1.9
		c0,0.1,0,0.1,0,0.2s0,0.2,0,0.2c-1.2,0.6-2.4,1.2-3.6,2c-1.3,0.9-2.6,1.9-3.8,3l0.3,1c0.3,1.2,0.7,2.3,1.1,3.4
		c0.2,0.5,0.5,1.1,0.8,1.6c0.3,0.5,0.5,1.1,0.8,1.6l0.5,0.9c1.6,0,3.2-0.2,4.8-0.5c1.3-0.3,2.6-0.7,3.9-1.2l0.3,0.3
		c-0.5,1.3-0.9,2.6-1.2,3.9c-0.3,1.6-0.5,3.2-0.5,4.8l0.9,0.6c0.5,0.3,1,0.6,1.6,0.8c0.5,0.3,1.1,0.5,1.6,0.8
		c1.1,0.5,2.2,0.8,3.4,1.1l1,0.3c2.1-2.1,3.8-4.6,5-7.3h0.2h0.2c0.6,1.2,1.2,2.4,2,3.6c0.9,1.3,1.9,2.6,3,3.8l1-0.3
		c1.1-0.3,2.3-0.7,3.4-1.1c0.6-0.2,1.1-0.5,1.6-0.8c0.5-0.2,1.1-0.5,1.6-0.8l0.9-0.6c0-3-0.6-5.9-1.7-8.7c0.1-0.1,0.2-0.2,0.3-0.3
		c1.3,0.5,2.6,0.9,3.9,1.2c1.6,0.3,3.2,0.5,4.8,0.5l0.5-0.9c0.3-0.5,0.6-1,0.8-1.6c0.3-0.5,0.5-1.1,0.8-1.6c0.4-1.1,0.8-2.2,1.1-3.4
		l0.3-1c-1.2-1.1-2.4-2.1-3.8-3C669.8,72.9,668.6,72.2,667.3,71.6z M650.1,79.6c-4.6,0-8.2-3.7-8.2-8.2s3.7-8.2,8.2-8.2
		c4.6,0,8.2,3.7,8.2,8.2l0,0C658.3,75.9,654.6,79.6,650.1,79.6C650.1,79.6,650.1,79.6,650.1,79.6L650.1,79.6z"/>
	<polyline class="st22" points="626.4,84.1 570.7,84.1 570.7,139 586.2,139 	"/>
	<rect x="587.5" y="168.3" class="st13" width="30.6" height="5.5"/>
	<rect x="587.5" y="178.4" class="st13" width="47.1" height="5.5"/>
	<rect x="587.5" y="188.6" class="st13" width="16" height="5.5"/>
	<rect x="610.1" y="188.6" class="st10" width="16" height="5.5"/>
	<rect x="631.9" y="188.6" class="st10" width="23" height="5.5"/>
	<rect x="640.9" y="178.4" class="st10" width="14" height="5.5"/>
	<rect x="624.3" y="168.3" class="st10" width="30.6" height="5.5"/>
	<rect x="665.1" y="132.9" class="st13" width="1" height="61"/>
	<rect x="588" y="135.1" class="st13" width="31.5" height="5.6"/>
	<rect x="588" y="145.5" class="st13" width="48.4" height="5.6"/>
	<rect x="588" y="155.9" class="st13" width="16.5" height="5.6"/>
	<rect x="611.2" y="155.9" class="st10" width="16.5" height="5.6"/>
	<rect x="633.6" y="155.9" class="st10" width="23.7" height="5.6"/>
	<rect x="642.9" y="145.5" class="st10" width="14.4" height="5.6"/>
	<rect x="625.8" y="135.1" class="st10" width="31.5" height="5.6"/>
	<rect x="457.9" y="30.3" class="st23" width="90.6" height="178"/>
	<rect x="468.2" y="68.1" class="st13" width="68" height="7.2"/>
	<rect x="468.2" y="84.1" class="st13" width="45" height="7.2"/>
	<rect x="519.9" y="84.1" class="st10" width="16.3" height="7.2"/>
	<rect x="494.1" y="100.1" class="st10" width="42.1" height="7.2"/>
	<rect x="468.2" y="100.1" class="st13" width="19.7" height="7.2"/>
	<rect x="468.2" y="116.1" class="st13" width="36" height="7.2"/>
	<rect x="509.7" y="116.1" class="st10" width="26.5" height="7.2"/>
	<rect x="488" y="132.1" class="st10" width="48.3" height="7.2"/>
	<rect x="468.2" y="132.1" class="st13" width="14.6" height="7.2"/>
	<rect x="468.2" y="148.1" class="st13" width="29.2" height="7.2"/>
	<rect x="502.2" y="148.1" class="st10" width="34" height="7.2"/>
	<path class="st10" d="M534.2,190.7v2l-7.4,2.9v-2l5.2-1.9l-5.2-1.8v-2L534.2,190.7z"/>
	<path class="st10" d="M513.1,187.9v2l-5.2,1.9l5.2,1.9v2l-7.5-2.8v-2L513.1,187.9z"/>
	<path class="st10" d="M521.9,182.4h2.3l-5.5,15.8h-2.3L521.9,182.4z"/>
	<path class="st10" d="M500,51.8v2.7l-9.8,3.7v-2.6l6.8-2.5l-6.8-2.5v-2.5L500,51.8z"/>
	<path class="st10" d="M482.1,48.1v2.5l-6.8,2.5l6.8,2.5v2.6l-9.8-3.7v-2.7L482.1,48.1z"/>
	<text transform="matrix(1 0 0 1 472.452 21.47)" class="st0 st14 st24">REACT</text>
	<path class="st25" d="M38.7,212.6c-1.9-1.8-4-3.3-6.4-4.4l-0.1-0.1c-5.8-2.6-12.4-2.7-18.2-0.3l-0.5,0.2C2,213.2-3.1,226.7,2,238.1
		c5.1,11.5,18.6,16.6,30,11.5c10.4-4.6,15.8-16.2,12.6-27.2c-0.3-1-0.6-2-1.1-2.9C42.4,217,40.7,214.6,38.7,212.6z M29.2,243.3
		c-8,3.6-17.3,0-20.8-8c-2-4.6-1.8-9.8,0.7-14.2l0-0.1c1.7-2.9,4.2-5.2,7.3-6.6c0.6-0.3,1.2-0.5,1.8-0.7l0.2-0.1
		c3.1-0.9,6.4-0.8,9.5,0.2l0,0c2.6,0.9,4.9,2.4,6.7,4.4c1.1,1.2,2,2.6,2.7,4.1c0.4,0.9,0.8,1.9,1,2.9
		C39.8,232.7,36.1,240.2,29.2,243.3z"/>
	<path class="st10" d="M32.3,208.2c5,2.3,9,6.3,11.2,11.4c0.4,0.9,0.8,1.9,1.1,2.9l-6.4,2.9c-0.2-1-0.6-2-1-2.9
		c-0.7-1.5-1.6-2.9-2.7-4.1c-1.8-2-4.1-3.5-6.7-4.4l0,0L32.3,208.2"/>
	<line class="st26" x1="32.3" y1="208.2" x2="27.8" y2="213.9"/>
	<path class="st0" d="M27.8,213.9L27.8,213.9c-3-1-6.3-1.1-9.4-0.2l-0.2,0.1l-4.2-5.9c5.8-2.4,12.5-2.3,18.2,0.3"/>
	<line class="st27" x1="24.6" y1="251.6" x2="24.6" y2="253.6"/>
	<line class="st28" x1="24.6" y1="257.4" x2="24.6" y2="286.1"/>
	<polyline class="st27" points="24.6,288 24.6,290 26.6,290 	"/>
	<line class="st29" x1="30.7" y1="290" x2="86.2" y2="290"/>
	<polyline class="st27" points="88.3,290 90.3,290 90.3,288 	"/>
	<line class="st30" x1="90.3" y1="284.2" x2="90.3" y2="254.9"/>
	<line class="st27" x1="90.3" y1="253" x2="90.3" y2="251"/>
	<rect x="66.3" y="19.2" class="st23" width="192.9" height="229.9"/>
	<rect x="66.3" y="8" class="st25" width="192.9" height="29.2"/>
	<path class="st10" d="M236.8,233.3v1.9l-6.9,2.6V236l4.9-1.8l-4.9-1.8v-1.8L236.8,233.3z"/>
	<path class="st10" d="M217.1,230.7v1.8l-4.9,1.8l4.9,1.8v1.8l-6.9-2.6v-1.9L217.1,230.7z"/>
	<text transform="matrix(1 0 0 1 220.68 238.69)" class="st10 st31 st32">/</text>
	<path class="st10" d="M112,55.8v2.4l-8.6,3.3v-2.3l6-2.2l-6-2.2v-2.3L112,55.8z"/>
	<path class="st10" d="M96.1,52.5v2.3l-6,2.2l6,2.2v2.3l-8.7-3.3v-2.4L96.1,52.5z"/>
	<text transform="matrix(1 0 0 1 78.01 28.76)" class="st13 st14 st33">WEB DEVE</text>
	<text transform="matrix(1 0 0 1 150.05 28.76)" class="st13 st14 st33">L</text>
	<text transform="matrix(1 0 0 1 157.6 28.76)" class="st13 st14 st33">OPING</text>
	<rect x="99.7" y="75.4" class="st34" width="56.7" height="10.4"/>
	<rect x="164.3" y="75.4" class="st10" width="28.3" height="10.4"/>
	<rect x="199.2" y="75.4" class="st13" width="39" height="10.4"/>
	<rect x="99.7" y="94" class="st34" width="26.5" height="10.4"/>
	<rect x="133.3" y="94" class="st10" width="45.2" height="10.4"/>
	<rect x="185.9" y="94" class="st13" width="52.4" height="10.4"/>
	<rect x="99.7" y="112.5" class="st34" width="34.8" height="10.4"/>
	<rect x="140.1" y="112.5" class="st10" width="65.5" height="10.4"/>
	<rect x="212.7" y="112.5" class="st13" width="25.6" height="10.4"/>
	<rect x="99.7" y="131" class="st34" width="43.9" height="10.4"/>
	<rect x="150" y="131" class="st10" width="42.6" height="10.4"/>
	<rect x="199.2" y="131" class="st13" width="39" height="10.4"/>
	<rect x="99.7" y="149.6" class="st34" width="19.3" height="10.4"/>
	<rect x="125.4" y="149.6" class="st10" width="38.2" height="10.4"/>
	<rect x="169.5" y="149.6" class="st13" width="68.8" height="10.4"/>
	<rect x="99.7" y="168.1" class="st34" width="55.1" height="10.4"/>
	<rect x="161.6" y="168.1" class="st10" width="16.9" height="10.4"/>
	<rect x="185.9" y="168.1" class="st13" width="52.4" height="10.4"/>
	<rect x="99.7" y="186.6" class="st34" width="71.7" height="10.4"/>
	<rect x="177.4" y="186.6" class="st10" width="29.3" height="10.4"/>
	<rect x="212.7" y="186.6" class="st13" width="25.6" height="10.4"/>
	<rect x="99.7" y="205.2" class="st34" width="22" height="10.4"/>
	<rect x="128" y="205.2" class="st10" width="26.7" height="10.4"/>
	<rect x="161.6" y="205.2" class="st13" width="76.7" height="10.4"/>
	<rect x="245.8" y="75.4" class="st13" width="2.1" height="140.1"/>
	<circle class="st13" cx="81.8" cy="80.6" r="5.2"/>
	<circle class="st13" cx="81.8" cy="99.2" r="5.2"/>
	<circle class="st13" cx="81.8" cy="117.7" r="5.2"/>
	<circle class="st13" cx="81.8" cy="136.2" r="5.2"/>
	<circle class="st13" cx="81.8" cy="154.8" r="5.2"/>
	<circle class="st13" cx="81.8" cy="173.3" r="5.2"/>
	<circle class="st13" cx="81.8" cy="191.8" r="5.2"/>
	<circle class="st13" cx="81.8" cy="210.4" r="5.2"/>
	<path class="st0" d="M250.6,24.2c0,2.9-2.4,5.3-5.3,5.3c-2.9,0-5.3-2.4-5.3-5.3s2.4-5.3,5.3-5.3l0,0
		C248.2,18.9,250.6,21.2,250.6,24.2C250.6,24.2,250.6,24.2,250.6,24.2z"/>
	<path class="st13" d="M237.5,24.1c0,2.9-2.4,5.3-5.3,5.3s-5.3-2.4-5.4-5.3s2.4-5.3,5.3-5.3c0,0,0,0,0,0
		C235.1,18.7,237.5,21.1,237.5,24.1C237.5,24.1,237.5,24.1,237.5,24.1z"/>
	<rect x="284.8" y="46.2" class="st20" width="18.7" height="5.2"/>
	<rect x="284.8" y="36.9" class="st25" width="57.1" height="5.2"/>
	<line class="st27" x1="317.8" y1="52.5" x2="317.8" y2="54.5"/>
	<line class="st35" x1="317.8" y1="57.8" x2="317.8" y2="69.6"/>
	<polyline class="st27" points="317.8,71.3 317.8,73.3 319.8,73.3 	"/>
	<line class="st36" x1="323.6" y1="73.3" x2="382.7" y2="73.3"/>
	<polyline class="st27" points="384.6,73.3 386.6,73.3 386.6,71.3 	"/>
	<line class="st37" x1="386.6" y1="67.3" x2="386.6" y2="61.2"/>
	<line class="st27" x1="386.6" y1="59.2" x2="386.6" y2="57.2"/>
	<text transform="matrix(1 0 0 1 284.82 23.08)" class="st0 st14 st24">C</text>
	<text transform="matrix(1 0 0 1 297.42 23.08)" class="st0 st14 st24">SS</text>
	<path class="st25" d="M401.8,35.9c-0.2-0.7-0.5-1.3-0.7-2c-1.6-3.5-4.3-6.3-7.8-7.9c0,0-0.1,0-0.1,0c-4-1.8-8.6-1.9-12.6-0.2
		l-0.3,0.1c-6.7,3-10.5,10.3-9,17.5c1.6,8.6,9.9,14.2,18.5,12.5c6.4-1.2,11.3-6.2,12.5-12.5C402.6,40.9,402.5,38.3,401.8,35.9z
		 M391.1,50.3c-5.5,2.4-12,0-14.5-5.5c-0.2-0.4-0.4-0.9-0.5-1.4c-0.8-2.8-0.5-5.9,1-8.4v-0.1c1.1-2,2.9-3.6,5-4.6
		c0.4-0.2,0.8-0.3,1.3-0.5c0,0,0.1,0,0.1,0c2.1-0.6,4.4-0.6,6.5,0.1l0,0c1.8,0.6,3.4,1.6,4.7,3c0.8,0.8,1.4,1.8,1.9,2.8
		c0.3,0.6,0.5,1.3,0.7,2C398.5,42.9,395.9,48.1,391.1,50.3L391.1,50.3z"/>
	<path class="st0" d="M402.1,43.3h-5c0.5-1.8,0.6-3.7,0.2-5.5c-0.2-0.7-0.4-1.4-0.7-2c-0.4-1-1-2-1.8-2.9c-1.3-1.4-2.9-2.5-4.7-3.1
		l0,0c-2.1-0.7-4.4-0.8-6.5-0.1c0,0-0.1,0-0.1,0c-0.4,0.1-0.9,0.3-1.3,0.5c-2.2,1-3.9,2.6-5.1,4.7V35c-1.5,2.6-1.8,5.6-1,8.4h-5
		c-1.4-7.2,2.3-14.5,9.1-17.5l0.3-0.1c4.1-1.7,8.6-1.6,12.6,0.2c0,0,0.1,0,0.1,0c3.5,1.6,6.2,4.4,7.8,7.9c0.3,0.7,0.5,1.3,0.7,2
		C402.5,38.3,402.6,40.8,402.1,43.3z"/>
	<rect x="307.2" y="46.2" class="st25" width="34.7" height="5.2"/>
	<text transform="matrix(1 0 0 1 14.44 30.26)" class="st38 st14 st39">{ }</text>
	<rect x="14.3" y="59.8" class="st13" width="20.5" height="9.8"/>
	<rect x="14.3" y="77" class="st13" width="20.5" height="9.8"/>
	<rect x="14.3" y="94.1" class="st10" width="20.5" height="9.8"/>
	<rect x="14.3" y="111.2" class="st10" width="20.5" height="9.8"/>
	<rect x="14.3" y="128.3" class="st10" width="20.5" height="9.8"/>
	<rect x="14.3" y="145.5" class="st10" width="20.5" height="9.8"/>
	<rect x="14.3" y="162.6" class="st10" width="20.5" height="9.8"/>
	<path class="st40" d="M615.3,252.6c0-0.1,0-0.1,0-0.2s0-0.1,0-0.2c1.1-0.5,2.1-1,3.1-1.7c1.1-0.8,2.2-1.6,3.2-2.6l-0.2-0.9
		c-0.2-1-0.6-1.9-0.9-2.9c-0.2-0.5-0.4-0.9-0.7-1.4c-0.2-0.5-0.4-0.9-0.7-1.3l-0.5-0.8c-1.4,0-2.8,0.2-4.1,0.4
		c-1.1,0.2-2.3,0.6-3.3,1l-0.3-0.3c0.4-1.1,0.8-2.2,1-3.4c0.3-1.4,0.4-2.7,0.4-4.1l-0.8-0.5c-0.4-0.3-0.9-0.5-1.3-0.7
		c-0.5-0.2-0.9-0.5-1.4-0.6c-0.9-0.4-1.9-0.7-2.9-0.9l-0.9-0.2c-1,1-1.8,2.1-2.6,3.2c-0.6,1-1.2,2-1.7,3.1h-0.2h-0.2
		c-0.5-1.1-1-2.1-1.7-3.1c-0.8-1.1-1.6-2.2-2.6-3.2l-0.9,0.2c-1,0.2-2,0.6-2.9,0.9c-0.5,0.2-0.9,0.4-1.4,0.6
		c-0.5,0.2-0.9,0.5-1.3,0.7l-0.8,0.5c0,1.4,0.2,2.7,0.4,4.1c0.2,1.1,0.6,2.3,1,3.4l-0.3,0.3c-1.1-0.4-2.2-0.8-3.3-1
		c-1.4-0.3-2.7-0.4-4.1-0.4l-0.5,0.8c-0.3,0.4-0.5,0.9-0.7,1.3c-0.2,0.5-0.4,0.9-0.6,1.4c-0.4,0.9-0.7,1.9-0.9,2.9l-0.2,0.9
		c1,1,2.1,1.8,3.2,2.6c1,0.6,2,1.2,3.1,1.7c0,0.1,0,0.1,0,0.2s0,0.1,0,0.2c-1.1,0.5-2.1,1-3.1,1.7c-1.1,0.8-2.2,1.6-3.2,2.6l0.2,0.9
		c0.2,1,0.6,2,0.9,2.9c0.2,0.5,0.4,0.9,0.6,1.4c0.2,0.5,0.5,0.9,0.7,1.3l0.5,0.8c1.4,0,2.8-0.2,4.1-0.4c1.1-0.2,2.3-0.6,3.3-1
		c0.1,0.1,0.2,0.2,0.3,0.3c-0.4,1.1-0.8,2.2-1,3.3c-0.3,1.4-0.4,2.7-0.4,4.1l0.8,0.5c0.4,0.3,0.9,0.5,1.3,0.7
		c0.5,0.2,0.9,0.5,1.4,0.6c0.9,0.4,1.9,0.7,2.9,0.9l0.9,0.2c1-1,1.8-2.1,2.6-3.2c0.6-1,1.2-2,1.7-3.1h0.2h0.2c0.5,1.1,1,2.1,1.7,3.1
		c0.8,1.1,1.6,2.2,2.6,3.2l0.9-0.2c1-0.2,2-0.6,2.9-0.9c0.5-0.2,0.9-0.4,1.4-0.6c0.5-0.2,0.9-0.5,1.3-0.7l0.8-0.5
		c0-1.4-0.2-2.7-0.4-4.1c-0.2-1.1-0.6-2.3-1-3.3c0.1-0.1,0.2-0.2,0.3-0.3c1.1,0.4,2.2,0.8,3.3,1c1.4,0.3,2.7,0.4,4.1,0.4l0.5-0.8
		c0.3-0.4,0.5-0.9,0.7-1.3c0.2-0.5,0.5-0.9,0.7-1.4c0.4-0.9,0.7-1.9,0.9-2.9l0.2-0.9c-1-1-2.1-1.8-3.2-2.6
		C617.4,253.6,616.3,253.1,615.3,252.6z M600.5,259.4c-3.9,0-7.1-3.2-7.1-7.1c0-3.9,3.2-7.1,7.1-7.1c3.9,0,7.1,3.2,7.1,7.1l0,0
		C607.6,256.3,604.4,259.4,600.5,259.4z"/>
	<rect x="541.1" y="226.4" class="st0" width="9.3" height="42"/>
	<rect x="527.3" y="244.9" class="st25" width="10" height="23.5"/>
	<rect x="513.5" y="252.4" class="st41" width="10" height="16"/>
	<line class="st27" x1="511.8" y1="261.6" x2="509.8" y2="261.6"/>
	<line class="st42" x1="504.7" y1="261.6" x2="497.1" y2="261.6"/>
	<polyline class="st27" points="494.5,261.6 492.5,261.6 492.5,263.6 	"/>
	<line class="st43" x1="492.5" y1="267.4" x2="492.5" y2="295.4"/>
	<polyline class="st27" points="492.5,297.3 492.5,299.3 494.5,299.3 	"/>
	<line class="st44" x1="497.9" y1="299.3" x2="509.8" y2="299.3"/>
	<line class="st27" x1="511.5" y1="299.3" x2="513.5" y2="299.3"/>
	<rect x="516.7" y="297.5" class="st13" width="26.4" height="4.7"/>
	<rect x="516.7" y="306.2" class="st13" width="18.3" height="4.7"/>
	<rect x="516.7" y="314.9" class="st13" width="23.1" height="4.7"/>
	<rect x="544.6" y="314.9" class="st10" width="5.4" height="4.7"/>
	<rect x="555" y="314.9" class="st10" width="19.9" height="4.7"/>
	<rect x="540.8" y="306.2" class="st10" width="34" height="4.7"/>
	<rect x="548.4" y="297.5" class="st10" width="26.4" height="4.7"/>
	<rect x="648.1" y="249.8" class="st0" width="17.4" height="8.3"/>
	<rect x="648.1" y="264.3" class="st0" width="17.4" height="8.3"/>
	<rect x="648.1" y="278.9" class="st0" width="17.4" height="8.3"/>
	<rect x="648.1" y="293.4" class="st0" width="17.4" height="8.3"/>
	<rect x="648.1" y="307.9" class="st13" width="17.4" height="8.3"/>
	<rect x="648.1" y="322.4" class="st13" width="17.4" height="8.3"/>
	<rect x="648.1" y="336.9" class="st13" width="17.4" height="8.3"/>
	<path class="st45" d="M589.6,369c-5.8,0.5-11.6-0.8-16.5-3.9c-18.4-11.4-22.2-43.4-22.5-45.8c0.2,0.7,2,4.7,21.1,17.5
		c1.6,1.1,3,2.2,4.4,3.3l0.1,0C592.7,353.9,589.6,369,589.6,369z"/>
	<path class="st46" d="M550.6,319.2c0,0,17.2,42.1,36.2,46.5"/>
	<path class="st47" d="M589.6,369c-5.8,0.5-11.6-0.8-16.5-3.9c3.7-8.6,3-25.1,3-25.1l0.1,0C592.7,353.9,589.6,369,589.6,369z"/>
	<path class="st45" d="M638.3,321.7c-0.1,0.4-0.3,2-0.8,4.3l0,0c-2.7,12.1-12.5,44.8-38.8,41.5c-0.2-2.3-0.1-4.7,0.5-7
		c1.3-6.2,5.5-15.3,18.2-23C636.2,326,638.1,322.4,638.3,321.7z"/>
	<path class="st46" d="M637.5,324.3c0,0-13.5,35-36.9,42.1"/>
	<path class="st47" d="M637.5,326L637.5,326c-2.7,12.1-12.5,44.8-38.8,41.5c-0.2-2.3-0.1-4.7,0.4-7l0,0
		C621,361.7,637.5,326,637.5,326z"/>
	<path class="st48" d="M597.2,368.7c-0.7,1.1-10.3-2.9-14.6-14.4l0,0c-2.6-6.9-3.3-16.6,1-29.5c11.3-33.9,6.6-40.3,6.5-40.5
		c7,3.9,12.7,9.7,16.4,16.8v0C613.5,314.1,616.2,335.7,597.2,368.7z"/>
	<path class="st49" d="M590.1,284.2c0,0,14.7,18.6,9.1,53.9c-5.6,35.3-2,30.6-2,30.6"/>
	<path class="st50" d="M597.2,368.7c-0.7,1.1-10.3-2.9-14.6-14.4c24.2,6.9,23.8-53.2,23.8-53.2v0
		C613.5,314.1,616.2,335.7,597.2,368.7z"/>
	<path class="st45" d="M550.6,319.2v0.1C550.5,319.3,550.5,319.2,550.6,319.2z"/>
	<path class="st10" d="M615.9,368.2v27.1c0,7.9-6.4,14.4-14.4,14.4h-12.7c-5,0-9.7-2.6-12.3-6.9l0,0c-1.4-2.3-2.1-4.8-2.1-7.5v-27.1
		H615.9z"/>
	<path class="st10" d="M572.9,364.6h44.5c0.6,0,1.1,0.5,1.1,1.1v1.4c0,0.6-0.5,1.1-1.1,1.1h-44.5c-0.6,0-1.1-0.5-1.1-1.1v-1.4
		C571.8,365.1,572.3,364.6,572.9,364.6z"/>
	<path class="st51" d="M615.9,368.2v27.1c0,7.9-6.4,14.4-14.4,14.4h-12.7c-5,0-9.7-2.6-12.3-6.9c30.4,9.5,37-12.8,35.8-21.7
		c-1.2-8.9-12.1-12.9-12.1-12.9H615.9z"/>
</g>
</svg>
